<?xml version="1.0" standalone="no"?>
<!DOCTYPE svg PUBLIC "-//W3C//DTD SVG 20010904//EN"
 "http://www.w3.org/TR/2001/REC-SVG-20010904/DTD/svg10.dtd">
<svg version="1.0" xmlns="http://www.w3.org/2000/svg"
 width="567.000000pt" height="566.000000pt" viewBox="0 0 567.000000 566.000000"
 preserveAspectRatio="xMidYMid meet">

<g transform="translate(0.000000,566.000000) scale(0.100000,-0.100000)"
fill="#000000" stroke="none">
<path d="M1178 5649 c-385 -47 -734 -261 -948 -580 -154 -231 -224 -464 -224
-744 1 -369 130 -682 388 -941 259 -258 575 -388 941 -388 369 1 682 130 941
388 258 259 388 575 388 941 -1 369 -130 682 -388 941 -196 195 -425 317 -697
369 -104 20 -299 27 -401 14z m314 -584 c330 -69 580 -361 596 -696 8 -175
-29 -317 -118 -453 -135 -206 -353 -332 -591 -344 -175 -8 -317 29 -453 118
-299 197 -423 568 -299 902 85 230 305 420 548 473 80 18 235 18 317 0z"/>
<path d="M2528 5646 c-130 -35 -210 -143 -210 -284 1 -258 331 -379 503 -184
136 155 64 408 -134 467 -60 18 -96 18 -159 1z"/>
<path d="M5306 3559 c-132 -33 -227 -171 -212 -311 24 -233 306 -341 476 -182
69 64 94 121 94 214 0 86 -27 151 -86 206 -70 67 -181 96 -272 73z"/>
<path d="M2202 923 c-17 -48 -58 -166 -91 -260 l-60 -173 58 0 58 0 18 60 18
60 98 0 97 0 19 -57 20 -58 56 -3 c31 -2 57 1 56 5 0 4 -40 121 -87 258 l-88
250 -70 3 -71 3 -31 -88z m132 -120 c16 -49 31 -94 33 -100 4 -10 -12 -13 -61
-13 -36 0 -66 3 -66 8 -1 14 55 192 60 192 3 0 19 -39 34 -87z"/>
<path d="M4280 750 l0 -260 55 0 55 0 0 260 0 260 -55 0 -55 0 0 -260z"/>
<path d="M2835 880 c-16 -5 -40 -22 -52 -37 l-23 -28 0 33 0 32 -55 0 -55 0 2
-267 3 -268 53 -3 52 -3 0 104 0 105 31 -29 c26 -24 40 -29 83 -29 107 0 165
84 154 225 -8 100 -51 153 -133 168 -16 3 -43 1 -60 -3z m64 -106 c15 -20 21
-41 21 -81 0 -65 -21 -110 -55 -119 -66 -17 -105 27 -105 119 0 73 26 107 80
107 30 0 43 -6 59 -26z"/>
<path d="M3325 880 c-16 -5 -40 -22 -52 -37 l-23 -28 0 33 0 32 -55 0 -55 0 2
-267 3 -268 53 -3 52 -3 0 106 0 107 31 -31 c26 -27 38 -31 82 -31 67 0 108
25 136 82 30 63 29 167 -1 228 -34 66 -107 99 -173 80z m69 -113 c26 -35 27
-124 2 -161 -32 -50 -105 -46 -132 6 -24 47 -15 145 16 170 34 28 87 21 114
-15z"/>
<path d="M3755 884 c-65 -16 -88 -29 -106 -58 -49 -81 -8 -145 113 -175 90
-22 98 -26 98 -51 0 -44 -87 -55 -124 -15 -21 22 -29 24 -70 19 -41 -6 -46 -9
-40 -28 18 -63 119 -104 214 -86 65 12 105 41 120 84 24 74 -19 125 -121 145
-64 13 -109 33 -109 51 0 39 88 54 117 20 13 -15 30 -20 66 -20 46 0 48 1 41
23 -8 29 -33 56 -64 72 -29 15 -106 26 -135 19z"/>
<path d="M4715 883 c-37 -8 -67 -27 -80 -53 l-14 -25 -1 38 0 37 -50 0 -50 0
0 -195 0 -195 49 0 49 0 4 136 c3 129 4 137 27 155 34 27 75 24 100 -7 19 -24
21 -40 21 -155 l0 -129 50 0 50 0 0 153 c0 133 -3 156 -20 184 -27 45 -83 68
-135 56z"/>
<path d="M5127 881 c-99 -20 -158 -126 -136 -245 18 -97 85 -149 190 -148 86
0 146 42 164 115 7 27 6 27 -42 27 -43 0 -51 -3 -61 -25 -23 -49 -95 -47 -130
5 -20 29 -23 44 -20 88 6 68 35 102 90 102 33 0 42 -5 56 -30 15 -27 22 -30
66 -30 48 0 48 0 42 28 -21 84 -115 133 -219 113z"/>
<path d="M5477 582 c-22 -24 -21 -55 1 -75 38 -35 102 -9 102 40 0 47 -71 71
-103 35z"/>
</g>
</svg>
